<?xml version="1.0" encoding="utf-8"?>
<!-- Generator: Adobe Illustrator 14.0.0, SVG Export Plug-In  -->
<!DOCTYPE svg PUBLIC "-//W3C//DTD SVG 1.1//EN" "http://www.w3.org/Graphics/SVG/1.1/DTD/svg11.dtd" [
	<!ENTITY ns_flows "http://ns.adobe.com/Flows/1.0/">
]>
<svg version="1.1"
	 xmlns="http://www.w3.org/2000/svg" xmlns:xlink="http://www.w3.org/1999/xlink" xmlns:a="http://ns.adobe.com/AdobeSVGViewerExtensions/3.0/"
	 x="0px" y="0px" width="474px" height="351px" viewBox="-15.988 -25.959 474 351" enable-background="new -15.988 -25.959 474 351"
	 xml:space="preserve">
<defs>
</defs>
<path fill="#62C4E6" d="M341.322,155.077h-0.04c-26.455,0-50.902-12.279-60.232-17.582c-0.09,0-0.111,0.01-0.267,0.003
	c-3.059-0.003-5.784-2.102-6.418-5.168c-1.901-9.24-4.236-22.903-4.543-35.521c-0.321-13.636,5.333-29.679,9.48-39.527
	c-28.07-0.844-106.912-3.452-122.403-6.616c-12.142-2.474-18.166-8.961-21.085-13.973c-3.462-5.946-4.386-13.014-2.464-18.91
	c4.336-13.361,26.742-15.312,53.381-16.356c3.759-0.148,7.101-0.276,9.693-0.484C204.379,0.318,215.104,0,228.307,0
	c46.615,0,115.664,3.928,152.676,6.269c17.316,1.096,20.318,2.019,26.726,8.221l0.765,0.743c7.728,7.405,9.629,21.72,9.813,23.328
	c0.041,0.335,0.053,0.665,0.041,1l-3.53,95.06c-0.084,2.313-1.392,4.403-3.436,5.482
	C410.203,140.715,382.624,155.063,341.322,155.077 M286.217,125.511c6.995,4.071,30.541,16.618,55.065,16.622v6.473l0.037-6.473
	c30.628-0.012,52.663-8.341,60.689-11.903l3.361-90.61c-0.61-4.39-2.648-11.972-5.854-15.038l-0.813-0.787
	c-3.506-3.392-3.792-3.669-18.536-4.605c-36.862-2.329-105.601-6.24-151.859-6.24c-12.862,0-23.246,0.305-30.865,0.905
	c-2.729,0.216-6.244,0.352-10.204,0.509c-26.321,1.033-40.311,3.529-41.575,7.427c-0.634,1.943-0.464,5.287,1.341,8.386
	c2.274,3.903,6.591,6.601,12.481,7.804c13.94,2.846,91.104,5.589,129.958,6.64c2.225,0.062,4.263,1.264,5.4,3.177
	c1.124,1.917,1.194,4.284,0.18,6.265c-0.133,0.241-12.675,24.825-12.251,42.438C283.004,106.396,284.632,117.153,286.217,125.511"/>
<path fill="#62C4E6" d="M410.273,308.765H232.729c-2.916,0-5.477-1.954-6.248-4.771c-0.768-2.814,0.437-5.791,2.952-7.277
	c0.43-0.257,43.81-26.643,39.788-70.638c-0.745-8.118-3.683-27.312-14.931-30.207c-24.564-6.318-77.798-9.62-117.686-9.62
	c-35.274,0-53.167,2.355-58.144,4.463c-1.301,1.805-3.312,8.076-4.363,13.663c-0.574,3.062-3.246,5.287-6.362,5.287H13.009
	c-3.035,0-5.667-2.118-6.321-5.08c-2.725-12.335-10.644-53.509,1.888-65.416c2.859-2.719,6.098-5.794,85.283-5.794
	c45.559,0,101.841,1.052,142.934,1.821c13.953,0.264,26.289,0.495,36.078,0.642h0.011c0.507,0,0.67-0.064,0.673-0.064
	c0.217-0.241,0.807-1.773,0.684-4.46c-0.021-0.51-0.06-0.909-0.07-0.964c-0.241-2.477,0.947-4.882,3.071-6.179
	c2.125-1.294,4.804-1.268,6.889,0.082c0.273,0.182,28.025,17.879,57.153,17.879c38.166-0.016,62.98-12.923,64.018-13.473
	c0.047-0.02,0.374-0.19,0.421-0.215c1.997-0.994,4.369-0.896,6.274,0.27c1.9,1.161,3.068,3.224,3.095,5.458l1.659,168.055
	c0.012,1.728-0.662,3.389-1.879,4.616C413.656,308.07,412.001,308.765,410.273,308.765 M251.74,295.815h151.996l-1.497-151.711
	c-11.534,4.461-33.117,10.966-60.916,10.976c-22.786,0-44.062-9.086-55.509-15.007c-0.667,1.675-1.617,3.284-2.965,4.69
	c-2.515,2.636-5.94,4.024-9.894,4.028c-10.084-0.154-22.439-0.385-36.405-0.649c-41.042-0.769-97.248-1.821-142.69-1.821
	c-58.884,0-73.341,1.821-76.851,2.803c-3.862,5.447-2.521,27.886,1.271,47.593h44.234c1.821-7.349,4.81-14.88,9.597-17.322
	c9.863-5.034,40.515-6.091,64.495-6.091c39.448,0,94.109,3.139,120.908,10.027c13.739,3.532,22.472,18.293,24.601,41.565
	C285.172,258.342,266.276,282.466,251.74,295.815"/>
<path fill="#62C4E6" d="M438.079,308.761H6.472c-3.577,0-6.472-2.895-6.472-6.472c0-3.579,2.895-6.474,6.472-6.474h431.607
	c3.573,0,6.472,2.895,6.472,6.474C444.551,305.866,441.652,308.761,438.079,308.761"/>
</svg>
